<svg xmlns="http://www.w3.org/2000/svg" xmlns:xlink="http://www.w3.org/1999/xlink" viewBox="0 0 175.05 230.55"><defs><style>.cls-1{fill:url(#bo);}.cls-2{fill:url(#bo-2);}</style><linearGradient id="bo" x1="3.87" y1="117.73" x2="175.05" y2="117.73" gradientUnits="userSpaceOnUse"><stop offset="0.08" stop-color="#f39200"/><stop offset="0.92" stop-color="#951b81"/></linearGradient><linearGradient id="bo-2" x1="102.05" y1="106.57" x2="130.63" y2="106.57" gradientTransform="translate(32.76 -5.3) rotate(-1.78)" xlink:href="#bo"/></defs><g id="Calque_2" data-name="Calque 2"><g id="blanc_sur_noir" data-name="blanc sur noir"><g id="_2" data-name="2"><path class="cls-1" d="M68.89,182.47l-1.59.23c6.4-36.46,3.07-59.95,4.3-96.73.35-10.48,1.17-32.13.6-43.8a.92.92,0,0,0-1.14-.89c-38.58,8.32-47.49,75.78-21.54,91.56a29.38,29.38,0,0,0,9.66,3.21c-24.77-.85-38,7.06-52.3-29.77C.27,89.21,2,66.54,38.54,42.28h0c35.9-18.21,35.79-9.75,35.61-32.13-.05-7.51,38-4.79,39.58-4.68h0c.08,10.3-1,50-1.19,57.19-1.11,35.75-2.13,58.81-3.83,93.53-.77,17.45-2.32,35.46,28.68,49,19.06,8.35,31.78-12.18,24.72-24.74-9.27-16.49-34.83-10.23-28.87,9.17,1.27,4.15-21.56-.74-13.54-20.36,2.18-10.11,16.53-21.11,26.27-13.73,21.57,16.35,26.3,9.87,28.94,30.29.65,5.08-1,15.17-4.95,25.5-5.61,14.65-23.85,24.94-40.72,15.7-7-3.84-23.13-19-33-27.83C81.6,186.79,80.53,180.88,68.89,182.47Z"/><path d="M59.37,191.31h0c6.39-36.47,3.47-73.46,4.7-110.24.35-10.48,1.17-32.13.6-43.8a.93.93,0,0,0-1.14-.89C25,44.7,19,113.75,43.64,131.47c4.58,3.29,16.69,4.73,16.69,4.73-5.36.21-41.68,15.62-56.14-20.47-6.81-17-9.7-54.1,26.82-78.35h0c35.9-18.21,35.78-9.75,35.61-32.13-.05-7.51,38-4.79,39.58-4.68h0c.08,10.3-1,50-1.19,57.19-1.11,35.74-2.13,58.81-3.83,93.53-.77,17.45-2.33,35.46,28.68,49,19.06,8.34,37.14-8,31.74-21.36-10.08-25-43.06-12.16-32.34,7.67,4.59,8.49-16.17.72-14.64-18.89,1.41-12.3,11.6-17.45,23.82-17.08,17.75.53,33.2,13.08,36,30.62,1.42,8.8-.1,19-7.43,30.21-7.93,12.08-22.26,18.4-35.7,13.06-7.44-3-14.1-8-20.84-12.54-6.52-4.38-12.45-9.69-19.1-13.84C80.56,191.4,71,189.72,59.37,191.31Z"/><path id="etoile" class="cls-2" d="M150,77.14s.84,14.7,16.69,21.57a24.82,24.82,0,0,0-13.43,19.42s-1.74-13.25-15.07-16.35C138.18,101.78,150.72,90.63,150,77.14Z"/></g></g></g></svg>