<svg width="62" height="52" viewBox="0 0 62 52" fill="none" xmlns="http://www.w3.org/2000/svg">
                      <path
                        d="M31.1464 51.8546H3.38015C1.13166 51.8546 0.765625 51.6194 0.765625 49.2411C0.765625 48.1435 0.765625 47.0458 0.765625 45.9743C0.765625 44.9028 1.36697 43.8313 2.72652 43.9881C4.08607 44.1449 4.39982 43.4393 4.63512 42.2632C6.72675 31.3389 8.88809 20.4234 11.1192 9.51657C11.3146 8.71009 11.7749 7.99237 12.4264 7.47808C15.3285 5.36118 18.3091 3.34881 21.3158 1.38872C21.9446 0.99351 22.6654 0.76837 23.4074 0.735352C28.2705 0.735352 33.1073 0.735352 37.9442 0.735352C38.7427 0.769055 39.5182 1.01244 40.1927 1.441C43.1471 3.37496 46.0754 5.36119 48.9514 7.42582C49.6205 7.92234 50.1001 8.63224 50.3109 9.43817C52.5246 20.3798 54.6946 31.3477 56.8211 42.3416C57.0564 43.5699 57.4747 44.0665 58.782 44.0142C61.3965 44.0142 61.3965 44.0142 61.3965 46.6277C61.3965 47.6469 61.3965 48.6923 61.3965 49.7116C61.3965 51.2012 60.8475 51.7501 59.3833 51.7501C54.7033 51.7501 50.0233 51.7501 45.3433 51.7501L31.1464 51.8546ZM54.3896 44.0142C54.4034 43.7879 54.4034 43.561 54.3896 43.3347C52.2457 32.5411 50.1279 21.7214 47.9578 10.9278C47.7724 10.2784 47.3771 9.70868 46.8336 9.30749C44.4021 7.47807 41.7876 5.7532 39.173 4.21126C38.5493 3.80845 37.824 3.59095 37.0814 3.58403C32.8459 3.58403 28.6103 3.58403 24.3487 3.58403C23.5585 3.6186 22.7916 3.86209 22.1263 4.28966C19.7471 5.8316 17.4986 7.53034 15.0932 9.04615C14.6335 9.32549 14.2437 9.70619 13.9537 10.1591C13.6637 10.6121 13.4811 11.1253 13.4199 11.6596C11.8251 19.8659 10.2041 28.046 8.60921 36.2523C8.0863 38.8657 7.61569 41.4792 7.11893 44.0926L54.3896 44.0142ZM58.9127 47.0197H3.79848V49.1627H58.9127V47.0197Z"
                        fill="#42210B" />
                    </svg>