<svg width="346" height="249" viewBox="0 0 346 249" fill="none" xmlns="http://www.w3.org/2000/svg">
<path d="M296.444 89.8769L341.332 70.9071C343.794 69.8669 343.769 66.3702 341.294 65.3643L186.069 2.29443C185.603 2.10512 185.083 2.0983 184.612 2.2753L4.48664 70.0076C2.02762 70.9323 1.83189 74.3289 4.19355 75.4797C52.4458 98.9928 142.984 140.545 163.56 139.988C190.427 139.262 279.017 95.6869 284.1 101.497C289.183 107.307 287.951 156.757 287.004 159.597C285.552 163.955 222.378 261.999 71.3402 173.396C61.1743 167.433 -4.90456 222.055 19.7842 239.485C44.473 256.916 56.8175 246.748 61.1743 179.933C65.5311 113.117 82.9586 73.173 171.548 60.1004" stroke="#D18861" stroke-width="4" stroke-linecap="round"/>
</svg>
