<svg width="53" height="42" viewBox="0 0 53 42" fill="none" xmlns="http://www.w3.org/2000/svg">
<g clip-path="url(#clip0_608_262)">
<path d="M24.4998 41.9371C23.6701 41.732 22.8426 41.5321 22.1163 41.0483C20.4529 39.9414 19.5313 38.4038 19.431 36.3937C19.4106 35.9714 19.4198 35.5481 19.4198 35.1258C19.4198 25.4306 19.4198 15.7347 19.4198 6.03805C19.4198 3.86503 20.2576 2.12866 22.0795 0.960149C23.9638 -0.245262 25.9667 -0.318039 27.9277 0.755148C29.9348 1.85806 30.9209 3.63952 30.9331 5.92531C30.9537 9.82547 30.9382 13.7256 30.9393 17.6258V32.1082C31.2748 32.1082 31.5704 32.1184 31.8661 32.1082C32.4501 32.0835 32.8624 32.3511 33.1162 32.8564C33.3207 33.2664 33.4915 33.7011 33.6798 34.1234C33.7442 34.2679 33.8179 34.4094 33.9171 34.6123C34.1821 34.0116 34.404 33.4745 34.6536 32.9497C34.8828 32.4669 35.2326 32.1214 35.8096 32.1153C36.405 32.1092 36.764 32.4618 36.9993 32.9599C37.2417 33.4725 37.4627 33.9983 37.7328 34.6102C37.835 34.3878 37.9128 34.2392 37.9814 34.0886C38.186 33.6437 38.3486 33.1763 38.5951 32.756C39.1066 31.8765 40.2011 31.8837 40.7157 32.7652C40.9275 33.127 41.0737 33.5279 41.2466 33.9112C41.3397 34.1161 41.4297 34.3211 41.5607 34.6287L41.8277 34.0311C42.025 33.5986 42.1877 33.1445 42.4292 32.7386C42.9406 31.8786 44.0127 31.8837 44.5252 32.7457C44.7523 33.1291 44.9058 33.5554 45.094 33.9634L45.4111 34.6533H47.0714V35.9007C46.4095 35.9007 45.7415 35.9663 45.096 35.8709C44.8045 35.8279 44.4925 35.5102 44.3094 35.2365C44.0566 34.8573 43.9175 34.4032 43.7283 33.982C43.6577 33.824 43.582 33.6744 43.4736 33.4376C43.3396 33.74 43.2393 33.9737 43.134 34.2054C42.9641 34.5753 42.8271 34.9639 42.6143 35.3103C42.1029 36.1642 41.0257 36.1652 40.5131 35.3103C40.2839 34.928 40.1306 34.5005 39.9444 34.0926C39.8554 33.8968 39.7705 33.6979 39.6467 33.415C39.4758 33.8251 39.347 34.15 39.2028 34.4697C39.0849 34.759 38.9482 35.0401 38.7936 35.3113C38.2688 36.1621 37.2049 36.1683 36.6924 35.3113C36.4571 34.9167 36.3007 34.476 36.1083 34.0557L35.8198 33.4254C35.649 33.8353 35.5211 34.1562 35.3779 34.474C35.2605 34.7634 35.1238 35.0445 34.9688 35.3155C34.4429 36.1632 33.377 36.1652 32.8675 35.3082C32.6323 34.9126 32.4747 34.4719 32.2825 34.0517L31.9919 33.4099H30.9486C30.9486 33.7492 30.9638 34.0865 30.9486 34.4216C30.8912 35.4804 30.9802 36.5742 30.7255 37.5878C30.1179 39.9936 28.4872 41.404 26.0464 41.8621C25.9681 41.8817 25.8913 41.9067 25.8163 41.9371H24.4998ZM29.6493 20.9806C29.6493 15.8945 29.6708 10.8095 29.6411 5.72337C29.6218 2.5889 26.425 0.485569 23.5167 1.64076C21.7367 2.34802 20.6872 3.97983 20.6862 6.05958C20.6862 15.2908 20.6862 24.5214 20.6862 33.7513C20.6862 34.5282 20.6739 35.3062 20.6862 36.0831C20.7455 39.0485 23.262 41.1272 26.0875 40.5522C28.1793 40.1269 29.6422 38.2972 29.6452 36.0729C29.6527 31.0414 29.6541 26.0108 29.6493 20.9806Z" fill="#9FC4AD"/>
<path d="M52.9452 11.7935L43.8971 16.8314L41.1811 14.7957V15.8207H37.7614V10.7367H32.0329V9.44825H37.7522V7.75084H41.1628V8.80454L43.8971 6.75452C46.9026 8.42938 49.8947 10.0961 52.9452 11.7935ZM44.0015 15.3052L48.9679 12.5376L48.9433 12.4628H47.0621C46.4156 13.5103 45.6596 13.8978 44.7533 13.6477C44.3531 13.5476 43.9961 13.3201 43.7357 12.9996C43.4754 12.6789 43.3257 12.2824 43.3093 11.8694C43.2929 11.4564 43.4103 11.0492 43.6444 10.7088C43.8783 10.3684 44.2161 10.1131 44.607 9.98125C45.3702 9.71987 46.4177 9.86543 47.0857 11.1344H48.9853L49.0078 11.0698C47.3403 10.1405 45.6712 9.21044 44.0005 8.27973C43.0982 8.95829 42.2144 9.61225 41.3408 10.2888C41.2926 10.3314 41.2534 10.3831 41.2253 10.441C41.1972 10.4989 41.1807 10.5617 41.1771 10.626C41.1638 11.4706 41.1699 12.3162 41.1699 13.1783L44.0015 15.3052ZM39.8615 14.5559V9.04336H39.0718V14.5559H39.8615ZM45.273 11.1641C45.1085 11.1529 44.9462 11.2062 44.8202 11.3127C44.6942 11.4193 44.6144 11.5707 44.5978 11.7351C44.5836 11.8991 44.6347 12.0621 44.7398 12.1887C44.845 12.3152 44.9959 12.3949 45.1594 12.4105C45.2438 12.4217 45.3295 12.4152 45.4112 12.3914C45.4929 12.3676 45.5688 12.327 45.634 12.2723C45.6993 12.2175 45.7524 12.1498 45.7901 12.0734C45.8278 11.9969 45.8492 11.9135 45.853 11.8283C45.8616 11.6638 45.8058 11.5024 45.6975 11.3783C45.5892 11.2543 45.4369 11.1775 45.273 11.1641Z" fill="#9FC4AD"/>
<path d="M13.3987 18.4438L12.8658 19.7343C14.7572 20.7019 16.6507 21.6715 18.582 22.6606L18.0102 23.8046L7.01439 18.1906C6.45688 18.6816 5.83083 19.0362 5.07077 19.1285C4.36457 19.2114 3.6494 19.0915 3.0085 18.7831C2.35993 18.4847 2.06123 17.9507 2.03872 17.2527C2.02747 16.9268 2.03872 16.5987 2.04691 16.2718C2.07248 15.6127 1.76559 15.1535 1.20604 14.8449C0.992243 14.7261 0.766166 14.6297 0.554414 14.5078C-0.103348 14.1275 -0.206663 13.4192 0.411203 12.9804C0.906431 12.6501 1.45 12.399 2.02236 12.2363C3.13636 11.8909 4.29025 11.7474 5.44415 12.0088C6.71978 12.2978 8.08747 13.375 8.1867 15.3707L18.6648 18.8312L18.2669 20.0459L13.3987 18.4438ZM1.79731 13.6334C1.82391 13.6907 1.82595 13.7072 1.83516 13.7144C1.88812 13.7592 1.94381 13.8005 2.0019 13.8384C2.9379 14.4247 3.37881 15.2672 3.31948 16.3743C3.30516 16.6459 3.27548 16.9278 3.3338 17.1871C3.37369 17.3664 3.51894 17.5971 3.67545 17.6627C4.54497 18.0092 5.39914 17.9805 6.0835 17.2681C6.78729 16.5363 7.10647 15.6455 6.75354 14.6502C6.42517 13.7278 5.68455 13.2695 4.73115 13.1844C3.72865 13.0962 2.76605 13.3259 1.79731 13.6334ZM12.1742 18.041C10.7277 17.5643 9.35595 17.1123 7.9637 16.6541L7.7591 17.1339L11.72 19.1459L12.1742 18.041Z" fill="#9FC4AD"/>
<path d="M32.0215 14.1089V12.9045H36.6658V14.1089H32.0215Z" fill="#9FC4AD"/>
<path d="M23.2641 4.93101C23.2655 4.67825 23.3172 4.4283 23.4161 4.19576C23.5149 3.9632 23.659 3.75271 23.8399 3.57658C24.0209 3.40044 24.235 3.26217 24.4698 3.16985C24.7046 3.07752 24.9555 3.03298 25.2077 3.03884C25.5858 3.04496 25.9534 3.16316 26.2644 3.37854C26.5754 3.59392 26.8158 3.89682 26.9551 4.24898C27.0945 4.60113 27.1266 4.98676 27.0473 5.35716C26.968 5.72757 26.7811 6.06613 26.5098 6.33012C26.2387 6.5941 25.8956 6.77165 25.5237 6.84035C25.1519 6.90905 24.7682 6.86582 24.4209 6.71611C24.0736 6.56642 23.7784 6.31696 23.5725 5.99924C23.3666 5.68152 23.2592 5.3098 23.2641 4.93101ZM25.1626 5.58702C25.248 5.59046 25.3332 5.57657 25.4131 5.54622C25.493 5.51586 25.5659 5.46963 25.6275 5.41033C25.6891 5.35102 25.7381 5.27987 25.7716 5.2011C25.8051 5.12235 25.8223 5.03763 25.8223 4.95202C25.8223 4.86642 25.8051 4.7817 25.7716 4.70295C25.7381 4.62419 25.6891 4.55302 25.6275 4.49373C25.5659 4.43442 25.493 4.3882 25.4131 4.35783C25.3332 4.32748 25.248 4.3136 25.1626 4.31703C24.9991 4.32362 24.8443 4.3934 24.7307 4.51176C24.6172 4.63013 24.5539 4.78789 24.5539 4.95202C24.5539 5.11616 24.6172 5.27392 24.7307 5.39228C24.8443 5.51065 24.9991 5.58043 25.1626 5.58702Z" fill="#9FC4AD"/>
<path d="M23.2641 37.0036C23.2666 36.7512 23.3187 36.5019 23.4175 36.2698C23.5163 36.0377 23.6598 35.8275 23.8397 35.6509C24.0196 35.4745 24.2325 35.3352 24.4663 35.2413C24.6999 35.1473 24.9498 35.1003 25.2015 35.1033C25.7086 35.1081 26.193 35.3147 26.548 35.6774C26.9031 36.0402 27.0999 36.5294 27.095 37.0374C27.0901 37.5455 26.884 38.0309 26.522 38.3867C26.16 38.7425 25.6718 38.9396 25.1647 38.9347C24.9128 38.935 24.6634 38.8851 24.4308 38.7878C24.1983 38.6905 23.9876 38.5479 23.8106 38.3682C23.6338 38.1884 23.4943 37.9752 23.4005 37.7409C23.3066 37.5066 23.2603 37.256 23.2641 37.0036ZM25.174 37.6586C25.2572 37.6571 25.3394 37.6394 25.4158 37.606C25.4922 37.5729 25.5613 37.5249 25.6193 37.4649C25.6771 37.4049 25.7227 37.334 25.7533 37.2564C25.7839 37.1786 25.7988 37.0958 25.7974 37.0123C25.796 36.9288 25.7783 36.8465 25.745 36.7699C25.7119 36.6934 25.664 36.6241 25.6041 36.5661C25.5442 36.508 25.4735 36.4625 25.3959 36.4318C25.3185 36.4012 25.2358 36.3861 25.1525 36.3875C24.9843 36.3905 24.824 36.4602 24.7072 36.5813C24.5902 36.7025 24.5261 36.8652 24.5289 37.0339C24.5317 37.2024 24.6013 37.3629 24.7223 37.48C24.8432 37.5972 25.0057 37.6614 25.174 37.6586Z" fill="#9FC4AD"/>
<path d="M28.565 8.61804V9.84088H21.7776V8.61804H28.565Z" fill="#9FC4AD"/>
<path d="M21.7859 32.1287H28.5517V33.3587H21.7859V32.1287Z" fill="#9FC4AD"/>
<path d="M26.0971 13.5175L25.139 16.1483L24.1851 13.5175H23.8141V16.8264H24.2095V14.743L24.9678 16.8264H25.3144L26.0727 14.743V16.8264H26.4681V13.5175H26.0971ZM25.0748 22.5752C25.9595 22.5752 26.4284 21.6519 26.4284 20.9207C26.4284 20.0669 25.8617 19.2621 25.0748 19.2621C24.2513 19.2621 23.7172 20.0955 23.7172 20.9207C23.7172 21.7009 24.2228 22.5752 25.0748 22.5752ZM25.0748 19.6666C25.5845 19.6666 26.0329 20.2099 26.0329 20.9207C26.0329 21.6356 25.5845 22.1789 25.0748 22.1789C24.5652 22.1789 24.1127 21.6356 24.1127 20.9207C24.1127 20.2099 24.5652 19.6666 25.0748 19.6666ZM25.0602 28.3158H25.4556V25.0068H25.0602V28.3158Z" fill="#9FC4AD"/>
</g>
<defs>
<clipPath id="clip0_608_262">
<rect width="53" height="42" fill="white"/>
</clipPath>
</defs>
</svg>
