<svg width="33" height="33" viewBox="0 0 33 33" fill="none" xmlns="http://www.w3.org/2000/svg">
<g clip-path="url(#clip0_608_87)">
<path d="M27.1962 33C26.8916 32.807 26.6017 32.5909 26.3295 32.3541C23.4409 29.4837 20.5592 26.6045 17.6844 23.7168C17.5932 23.6181 17.5073 23.5147 17.427 23.407C17.3325 23.5698 17.2642 23.6748 17.2012 23.7798L13.6087 30.002C13.4906 30.2827 13.2707 30.5085 12.9931 30.6342C12.7156 30.7597 12.4007 30.7759 12.1118 30.6793C11.9258 30.6088 11.7582 30.497 11.6217 30.3524C11.4853 30.2078 11.3834 30.0339 11.3239 29.8443C10.5991 28.017 9.8708 26.1934 9.13898 24.3731C6.1627 16.8961 3.18293 9.42268 0.199644 1.95269C-0.0314554 1.37511 -0.147005 0.829041 0.336202 0.340728C0.819411 -0.147585 1.38665 -0.0320701 1.94864 0.19896L29.7225 11.2779C29.9535 11.3336 30.1654 11.4494 30.3372 11.6135C30.5088 11.7777 30.6337 11.9844 30.6994 12.2125C30.7576 12.4259 30.7515 12.6515 30.6827 12.8616C30.6135 13.0716 30.4841 13.2567 30.3108 13.3939C30.1843 13.4951 30.0491 13.5848 29.9064 13.6617L23.7718 17.2059L23.4514 17.4002L23.6982 17.668C26.5451 20.5209 29.3936 23.372 32.2436 26.2214C32.5144 26.5304 32.7669 26.8547 33 27.1928V27.7179C32.7742 28.049 32.5286 28.3664 32.2646 28.6681C31.0462 29.9074 29.8207 31.1326 28.5882 32.3437C28.3156 32.5775 28.0277 32.7934 27.7268 32.9895L27.1962 33ZM12.6843 26.841L12.8786 26.5155C13.929 24.7039 14.9795 22.8872 16.03 21.0809C16.159 20.8482 16.3385 20.6473 16.5552 20.4929C17.0541 20.1673 17.6056 20.2934 18.1309 20.7974L27.17 29.8496L27.4062 30.0753L30.1217 27.3711C30.0295 27.3151 29.9417 27.252 29.8592 27.1823L20.8305 18.1563C20.0479 17.374 20.1582 16.5811 21.1141 15.9983L26.4977 12.8899L26.8285 12.6851L3.29322 3.29686L12.6843 26.841Z" fill="#9FC4AD"/>
</g>
<defs>
<clipPath id="clip0_608_87">
<rect width="33" height="33" fill="white"/>
</clipPath>
</defs>
</svg>
