<svg width="90" height="90" viewBox="0 0 90 90" fill="none" xmlns="http://www.w3.org/2000/svg">
<path d="M82.5 63.4501V74.7001C82.5042 75.7445 82.2903 76.7783 81.8719 77.7352C81.4535 78.6921 80.8399 79.5511 80.0703 80.2571C79.3007 80.9632 78.3921 81.5007 77.4028 81.8353C76.4135 82.1699 75.3651 82.2941 74.325 82.2001C62.7856 80.9463 51.7012 77.0032 41.9625 70.6876C32.9018 64.9301 25.22 57.2483 19.4625 48.1876C13.1249 38.4046 9.1809 27.2663 7.94999 15.6751C7.85628 14.6381 7.97952 13.593 8.31187 12.6062C8.64422 11.6195 9.17838 10.7127 9.88037 9.9437C10.5823 9.17469 11.4368 8.56028 12.3892 8.13958C13.3417 7.71887 14.3713 7.5011 15.4125 7.50012H26.6625C28.4824 7.48221 30.2467 8.12666 31.6266 9.31337C33.0065 10.5001 33.9078 12.148 34.1625 13.9501C34.6373 17.5504 35.5179 21.0853 36.7875 24.4876C37.292 25.8298 37.4012 27.2885 37.1021 28.6909C36.8031 30.0933 36.1082 31.3805 35.1 32.4001L30.3375 37.1626C35.6758 46.5509 43.4492 54.3243 52.8375 59.6626L57.6 54.9001C58.6196 53.8919 59.9068 53.1971 61.3092 52.898C62.7116 52.5989 64.1703 52.7081 65.5125 53.2126C68.9148 54.4822 72.4497 55.3628 76.05 55.8376C77.8716 56.0946 79.5353 57.0121 80.7245 58.4157C81.9137 59.8193 82.5456 61.611 82.5 63.4501Z" stroke="#DA9A77" stroke-width="5px" stroke-linecap="round" stroke-linejoin="round"/>
</svg>
