<svg width="90" height="91" viewBox="0 0 90 91" fill="none" xmlns="http://www.w3.org/2000/svg">
<path d="M45 60.6666C53.2843 60.6666 60 53.8762 60 45.4999C60 37.1236 53.2843 30.3333 45 30.3333C36.7157 30.3333 30 37.1236 30 45.4999C30 53.8762 36.7157 60.6666 45 60.6666Z" stroke="#DA9A77" stroke-width="5px" stroke-linecap="round" stroke-linejoin="round"/>
<path d="M60 30.3333V49.2916C60 52.3085 61.1853 55.2017 63.2951 57.335C65.4049 59.4682 68.2664 60.6666 71.25 60.6666C74.2337 60.6666 77.0952 59.4682 79.205 57.335C81.3148 55.2017 82.5 52.3085 82.5 49.2916V45.4999C82.5 36.9585 79.6478 28.6672 74.4053 21.9695C69.1629 15.2718 61.8374 10.56 53.6158 8.59759C45.3942 6.63517 36.758 7.53705 29.1067 11.1571C21.4553 14.7772 15.2369 20.9034 11.459 28.5431C7.68114 36.1828 6.56508 44.8885 8.29167 53.2497C10.0183 61.6108 14.4864 69.1376 20.972 74.6105C27.4577 80.0835 35.581 83.1819 44.0257 83.4038C52.4705 83.6257 60.742 80.9582 67.5 75.8333" stroke="#DA9A77" stroke-width="5px" stroke-linecap="round" stroke-linejoin="round"/>
</svg>
