<svg width="43" height="32" viewBox="0 0 43 32" fill="none" xmlns="http://www.w3.org/2000/svg">
<g clip-path="url(#clip0_608_64)">
<path d="M43 13.9644C41.3205 19.0937 39.6412 24.2241 37.9617 29.3554C37.3796 31.1313 36.166 32 34.2586 32C24.1008 32 13.942 32 3.78203 32C1.50952 32 0 30.5245 0 28.3111V2.76046C0 1.35198 0.776138 0.349115 2.08176 0.064865C2.34288 0.0163906 2.60856 -0.0050216 2.87435 0.000988344H12.3623C13.7633 0.000988344 14.6644 0.639754 15.1478 1.91729C15.3649 2.48898 15.5754 3.06386 15.7891 3.63877C16.0029 4.21366 16.1805 4.33501 16.8119 4.33501H32.3873C34.0942 4.33501 35.1892 5.40495 35.199 7.06575C35.199 8.02389 35.199 8.96608 35.199 9.96254C35.3867 9.96254 35.5281 9.98492 35.7057 9.98492C37.0508 9.98492 38.3957 9.94339 39.7343 10.0264C41.3787 10.1254 42.5594 11.1922 42.9112 12.754C42.9375 12.8562 42.9704 12.9584 43 13.0733V13.9644ZM23.9484 11.8182H8.79403C7.63311 11.8182 7.07074 12.2366 6.71556 13.3257C5.67853 16.5024 4.64587 19.6739 3.61759 22.8401C3.0355 24.5711 2.44023 26.2958 1.91403 28.0397C1.80731 28.443 1.83377 28.8687 1.98968 29.2564C2.31855 30.0167 3.00259 30.2752 3.82806 30.2752C13.9442 30.2752 24.0603 30.2752 34.1764 30.2752C35.3045 30.2752 35.9359 29.8218 36.2844 28.771C37.8663 23.9803 39.4351 19.1544 41.04 14.3573C41.5496 12.8338 40.5106 11.8022 39.1424 11.8182C34.0778 11.8597 29.0131 11.8182 23.9484 11.8182ZM1.78577 22.2301L1.87128 22.2524C1.92061 22.1183 1.96994 21.9841 2.01598 21.8468C3.04865 18.736 4.06158 15.6188 5.13041 12.5176C5.33511 11.972 5.65301 11.4731 6.06439 11.0517C6.79119 10.2947 7.76795 10.0775 8.82034 10.0935C16.8514 10.0935 24.8846 10.0935 32.92 10.0935H33.5053V7.4458C33.5053 6.44934 33.216 6.16829 32.1901 6.16829H17.0619C15.5589 6.16829 14.6085 5.5295 14.102 4.15936C13.9014 3.59725 13.6975 3.03514 13.4837 2.47301C13.2963 1.97478 13.0858 1.83425 12.5498 1.83425C9.28954 1.83425 6.02931 1.83425 2.7691 1.83425C2.1278 1.83425 1.81866 2.15363 1.78249 2.75726C1.78249 2.89141 1.78249 3.02874 1.78249 3.16289V22.2301H1.78577Z" fill="#9FC4AD"/>
</g>
<defs>
<clipPath id="clip0_608_64">
<rect width="43" height="32" fill="white"/>
</clipPath>
</defs>
</svg>
