<svg width="439" height="439" viewBox="0 0 439 439" fill="none" xmlns="http://www.w3.org/2000/svg">
<rect x="10.457" y="243.457" width="53.4903" height="14.1297" rx="7.06486" transform="rotate(-14.5462 10.457 243.457)" fill="#D18861"/>
<rect x="62.656" y="393.129" width="59.7855" height="14.1297" rx="7.06486" transform="rotate(-48.0375 62.656 393.129)" fill="#D18861"/>
<rect x="236.842" y="431.279" width="49.3288" height="14.1297" rx="7.06486" transform="rotate(-90.8744 236.842 431.279)" fill="#D18861"/>
<rect x="373.299" y="377.107" width="47.3855" height="14.1297" rx="7.06486" transform="rotate(-131.183 373.299 377.107)" fill="#D18861"/>
<rect x="425.281" y="231.717" width="53.7776" height="14.1297" rx="7.06486" transform="rotate(173.862 425.281 231.717)" fill="#D18861"/>
<rect x="374.246" y="95.891" width="53.7776" height="14.1297" rx="7.06486" transform="rotate(146.275 374.246 95.891)" fill="#D18861"/>
<rect x="221.248" y="8.59045" width="53.7776" height="14.1297" rx="7.06486" transform="rotate(91.2585 221.248 8.59045)" fill="#D18861"/>
<rect x="58.6616" y="90.0872" width="51.7605" height="14.1297" rx="7.06486" transform="rotate(32.5488 58.6616 90.0872)" fill="#D18861"/>
<rect x="33.6924" y="160.256" width="35.6077" height="9.78691" rx="4.89346" transform="rotate(-0.414476 33.6924 160.256)" fill="#D18861"/>
<rect x="43.5627" y="307.463" width="31.1045" height="9.78691" rx="4.89346" transform="rotate(-29.2487 43.5627 307.463)" fill="#D18861"/>
<rect x="160.23" y="411.97" width="31.1045" height="9.78691" rx="4.89346" transform="rotate(-76.3809 160.23 411.97)" fill="#D18861"/>
<rect x="320.974" y="404.192" width="27.6127" height="9.78691" rx="4.89346" transform="rotate(-116.854 320.974 404.192)" fill="#D18861"/>
<rect x="395.343" y="305.842" width="27.6127" height="9.78691" rx="4.89346" transform="rotate(-139.997 395.343 305.842)" fill="#D18861"/>
<rect x="380.659" y="162.131" width="29.4814" height="9.78691" rx="4.89346" transform="rotate(153.909 380.659 162.131)" fill="#D18861"/>
<rect x="312.241" y="54.5469" width="35.2311" height="9.78691" rx="4.89346" transform="rotate(128.177 312.241 54.5469)" fill="#D18861"/>
<rect x="140.023" y="47.5898" width="32.6119" height="9.78691" rx="4.89346" transform="rotate(63.9317 140.023 47.5898)" fill="#D18861"/>
<path d="M143.861 338.104C170.781 344.922 230.459 354.856 253.811 340.052C283.001 321.548 311.705 296.226 317.543 274.313C323.381 252.4 325.327 175.46 291.271 150.138C257.216 124.817 208.566 82.4511 129.753 154.521C66.702 212.177 119.05 269.119 153.105 290.383C184.565 306.128 264.973 323.19 282.514 248.991C297.596 185.199 233.378 142.911 194.944 156.956C156.51 171 147.267 237.304 179.862 252.4C235.186 278.021 222.188 193.478 196.89 193.478" stroke="#D18861" stroke-width="16" stroke-linecap="round"/>
</svg>
