<svg width="208" height="113" viewBox="0 0 208 113" fill="none" xmlns="http://www.w3.org/2000/svg">
<path d="M207.135 9.28597C98.1348 9.28605 99.1348 56.7366 115.135 69.2856C135.535 85.2856 162.635 73.7862 157.635 41.7862C152.635 9.78623 78.635 -14.7139 33.1349 16.2862C14.725 28.8291 3.63478 60.2862 11.6347 101.786" stroke="#D18861" stroke-width="3"/>
<path d="M12.2632 112.007C12.9373 112.488 13.8741 112.332 14.3556 111.658L22.2023 100.673C22.6838 99.9985 22.5277 99.0616 21.8536 98.5801C21.1795 98.0986 20.2426 98.2548 19.7611 98.9289L12.7863 108.694L3.02147 101.719C2.34735 101.237 1.41052 101.393 0.929008 102.068C0.447495 102.742 0.603632 103.679 1.27775 104.16L12.2632 112.007ZM9.15542 96.0327L11.6554 111.033L14.6146 110.54L12.1146 95.5395L9.15542 96.0327Z" fill="#D18861"/>
</svg>
